<svg id="data-erased" xmlns="http://www.w3.org/2000/svg" width="35.318" height="35.318" viewBox="0 0 35.318 35.318">
  <path id="Path_34" data-name="Path 34" d="M259.763,124h-2.132L248.5,145.177l11.264-4.264a2.138,2.138,0,0,0,2.132-2.132V126.132A2.138,2.138,0,0,0,259.763,124Z" transform="translate(-230.841 -115.188)" fill="#5c2bc8"/>
  <path id="Path_35" data-name="Path 35" d="M70.725,126.132A2.138,2.138,0,0,0,68.593,124H47.132A2.138,2.138,0,0,0,45,126.132v12.649a2.138,2.138,0,0,0,2.132,2.132l12.329,4.264,9.132-4.264a2.138,2.138,0,0,0,2.132-2.132Z" transform="translate(-41.802 -115.188)" fill="#4e4cd3"/>
  <path id="Path_36" data-name="Path 36" d="M419.44,422v5.33h2.314a2.132,2.132,0,0,0,2.132-2.132Z" transform="translate(-389.633 -392.012)" fill="#7d8fe5"/>
  <path id="Path_37" data-name="Path 37" d="M5.584,437,0,439.132a2.132,2.132,0,0,0,2.132,2.132h11.8l3.2-3.4,3.2,3.4h9.48a2.132,2.132,0,0,0,2.132-2.132V437Z" transform="translate(0 -405.946)" fill="#95b0ed"/>
  <path id="Path_38" data-name="Path 38" d="M196.033,437h6.4v4.264h-6.4Z" transform="translate(-182.102 -405.946)" fill="#acd2f6"/>
  <path id="Path_39" data-name="Path 39" d="M388.933,363.292A2.131,2.131,0,0,0,386.974,362H384.66l4.6,7.462h2.314Z" transform="translate(-357.325 -336.275)" fill="#acd2f6"/>
  <path id="Path_40" data-name="Path 40" d="M29.294,363.292l.354.84-1.67,1.064,2.589,1.068,1.371,3.2H0l2.644-6.17A2.131,2.131,0,0,1,4.6,362H27.335A2.132,2.132,0,0,1,29.294,363.292Z" transform="translate(0 -336.275)" fill="#c4f3ff"/>
  <path id="Path_41" data-name="Path 41" d="M78.8,394.132,77.884,392H52.839l-.914,2.132Z" transform="translate(-48.235 -364.143)" fill="#7d8fe5"/>
  <path id="Path_42" data-name="Path 42" d="M367.66,0A3.66,3.66,0,0,0,364,3.66V8.812h2.132V3.66a1.528,1.528,0,1,1,3.056,0V8.812h2.132V3.66A3.66,3.66,0,0,0,367.66,0Z" transform="translate(-338.133)" fill="#484b7f"/>
  <path id="Path_43" data-name="Path 43" d="M454.132,94H452v11.583h2.132a1.066,1.066,0,0,0,1.066-1.066V95.066A1.066,1.066,0,0,0,454.132,94Z" transform="translate(-419.88 -87.32)" fill="#ff9733"/>
  <path id="Path_44" data-name="Path 44" d="M343.451,104.517V95.066A1.066,1.066,0,0,0,342.385,94h-7.319A1.066,1.066,0,0,0,334,95.066v9.451a1.066,1.066,0,0,0,1.066,1.066h7.319A1.066,1.066,0,0,0,343.451,104.517Z" transform="translate(-310.265 -87.32)" fill="#ffb820"/>
</svg>
