<svg xmlns="http://www.w3.org/2000/svg" width="37" height="38.066" viewBox="0 0 37 38.066">
  <g id="unsubscribe" transform="translate(0 0.455)">
    <ellipse id="Ellipse_13" data-name="Ellipse 13" cx="18.5" cy="19" rx="18.5" ry="19" transform="translate(0 -0.455)" fill="#343a6e"/>
    <ellipse id="Ellipse_14" data-name="Ellipse 14" cx="15.861" cy="15.861" rx="15.861" ry="15.861" transform="translate(2.684 0)" fill="#484b7f"/>
    <ellipse id="Ellipse_15" data-name="Ellipse 15" cx="11.377" cy="11.377" rx="11.377" ry="11.377" transform="translate(4.074)" fill="#ef487d"/>
    <path id="Path_26" data-name="Path 26" d="M91.682,42.365a9.688,9.688,0,1,1,9.688-9.688A9.7,9.7,0,0,1,91.682,42.365Z" transform="translate(-76.232 -21.299)" fill="#ff668c"/>
    <path id="Path_27" data-name="Path 27" d="M129.789,160.349v7.083a7.729,7.729,0,0,1-.085,1.152,18.814,18.814,0,0,1-21.515.035,13.4,13.4,0,0,1-.136-1.9v-7.8a2.14,2.14,0,1,1,4.28,0v-1.793a2.14,2.14,0,0,1,4.281,0v-.728a2.14,2.14,0,0,1,4.28,0v-9.233a2.139,2.139,0,0,1,2.2-2.139,2.172,2.172,0,0,1,2.084,2.188v15.055a4.6,4.6,0,0,1,1.118-3.01c.075-.087.153-.171.234-.253l.025-.025A1.908,1.908,0,0,1,129.789,160.349Z" transform="translate(-100.376 -134.368)" fill="#f9d5a9"/>
    <g id="Group_17" data-name="Group 17" transform="translate(7.677 11.017)">
      <path id="Path_28" data-name="Path 28" d="M283.8,149.973v15.448a.473.473,0,0,1-.473.473h0a.473.473,0,0,1-.473-.473V151.749a2.133,2.133,0,0,1,.626-1.513A2.157,2.157,0,0,1,283.8,149.973Z" transform="translate(-270.014 -149.973)" fill="#e5a379"/>
      <path id="Path_29" data-name="Path 29" d="M225.538,275.664v7.083a.473.473,0,0,1-.473.473h0a.473.473,0,0,1-.473-.473V277.44a2.142,2.142,0,0,1,.946-1.776Z" transform="translate(-216.031 -266.431)" fill="#e5a379"/>
      <path id="Path_30" data-name="Path 30" d="M167.264,285.57v6.893a.473.473,0,0,1-.473.473h0a.473.473,0,0,1-.473-.473v-5.117a2.142,2.142,0,0,1,.946-1.776Z" transform="translate(-162.038 -275.609)" fill="#e5a379"/>
      <path id="Path_31" data-name="Path 31" d="M109,309.979v12.013q-.412-.257-.81-.533a13.4,13.4,0,0,1-.136-1.9v-7.8a2.143,2.143,0,0,1,.946-1.776Z" transform="translate(-108.053 -298.225)" fill="#e5a379"/>
      <path id="Path_32" data-name="Path 32" d="M342.237,338.776v7.581a.559.559,0,0,1-.559.559h0a.559.559,0,0,1-.559-.559v-4.57A4.6,4.6,0,0,1,342.237,338.776Z" transform="translate(-323.998 -324.906)" fill="#e5a379"/>
    </g>
    <path id="Path_33" data-name="Path 33" d="M163.665,102.775,161.4,100.51l2.265-2.265a.558.558,0,0,0,0-.788l-1.093-1.093a.558.558,0,0,0-.788,0l-2.265,2.265-2.265-2.265a.558.558,0,0,0-.788,0l-1.093,1.093a.558.558,0,0,0,0,.788l2.265,2.265-2.265,2.265a.558.558,0,0,0,0,.788l1.093,1.093a.558.558,0,0,0,.788,0l2.265-2.265,2.265,2.265a.558.558,0,0,0,.788,0l1.093-1.093A.557.557,0,0,0,163.665,102.775Z" transform="translate(-144.067 -89.133)" fill="#fff"/>
  </g>
</svg>
