<svg xmlns="http://www.w3.org/2000/svg" width="217.972" height="306.765" viewBox="0 0 217.972 306.765">
  <g id="Group_1672" data-name="Group 1672" transform="translate(-108.993 -57.317)">
    <ellipse id="Ellipse_16" data-name="Ellipse 16" cx="108.764" cy="6.619" rx="108.764" ry="6.619" transform="translate(109.436 350.844)" fill="#1e3e54"/>
    <g id="Group_1654" data-name="Group 1654" transform="translate(109.675 226.018)">
      <g id="Group_1653" data-name="Group 1653" transform="translate(9.572 24.335)">
        <path id="Path_623" data-name="Path 623" d="M221.944,413.613h0a4.122,4.122,0,0,1-4.122-4.122V310.913a4.121,4.121,0,0,1,4.122-4.122h0a4.121,4.121,0,0,1,4.122,4.122v98.578A4.122,4.122,0,0,1,221.944,413.613Z" transform="translate(-143.768 -306.791)" fill="#fff"/>
        <path id="Path_624" data-name="Path 624" d="M126.238,413.613h0a4.122,4.122,0,0,1-4.122-4.122V310.913a4.121,4.121,0,0,1,4.122-4.122h0a4.121,4.121,0,0,1,4.122,4.122v98.578A4.122,4.122,0,0,1,126.238,413.613Z" transform="translate(-122.116 -306.791)" fill="#fff"/>
        <line id="Line_1" data-name="Line 1" y2="93.772" transform="translate(5.817 2.583)" fill="none" stroke="#d4eefd" stroke-linecap="round" stroke-linejoin="round" stroke-width="2"/>
        <path id="Path_625" data-name="Path 625" d="M127.443,374.613h0a4.122,4.122,0,0,1,4.122-4.122h65.811a4.122,4.122,0,0,1,4.122,4.122h0a4.122,4.122,0,0,1-4.122,4.122H131.565A4.122,4.122,0,0,1,127.443,374.613Z" transform="translate(-123.321 -321.202)" fill="#1e3e54"/>
        <path id="Path_626" data-name="Path 626" d="M174.618,413.613h0a4.122,4.122,0,0,1-4.122-4.122V310.913a4.121,4.121,0,0,1,4.122-4.122h0a4.121,4.121,0,0,1,4.122,4.122v98.578A4.122,4.122,0,0,1,174.618,413.613Z" transform="translate(-133.061 -306.791)" fill="#fff"/>
      </g>
      <path id="Path_627" data-name="Path 627" d="M212.123,302.21c0,5.487-22.914,9.924-51.189,9.924s-51.189-4.437-51.189-9.924V288.168H211.877v13.064A2.128,2.128,0,0,1,212.123,302.21Z" transform="translate(-109.745 -278.243)" fill="#1e3e54"/>
      <ellipse id="Ellipse_17" data-name="Ellipse 17" cx="51.188" cy="9.925" rx="51.188" ry="9.925" transform="translate(0.002)" fill="#1e3e54"/>
      <path id="Path_628" data-name="Path 628" d="M161.148,298.583c-25.323,0-46.351-3.566-50.461-8.248" transform="translate(-109.958 -278.733)" fill="none" stroke="#376788" stroke-linecap="round" stroke-miterlimit="10" stroke-width="2"/>
    </g>
    <g id="Group_1664" data-name="Group 1664" transform="translate(208.45 57.317)">
      <g id="Group_1655" data-name="Group 1655" transform="translate(16.147 128.046)">
        <path id="Path_629" data-name="Path 629" d="M351.279,421.18H334.592s-8.136,14.63-24.159,14.63v3.682H350.99Z" transform="translate(-270.069 -267.68)" fill="#1e3e54"/>
        <path id="Path_630" data-name="Path 630" d="M299.113,421.18H282.426s-8.136,14.63-24.159,14.63v3.682h40.558Z" transform="translate(-258.267 -267.68)" fill="#1e3e54"/>
        <path id="Path_631" data-name="Path 631" d="M287.294,225.986l-2.205,151.2,23.335.447,13.371-150.111Z" transform="translate(-264.335 -223.522)" fill="#0085b2"/>
        <path id="Path_632" data-name="Path 632" d="M320.987,225.265l12.106,151.092,24.638.184q-1.148-76.87-2.3-153.74Z" transform="translate(-272.456 -222.801)" fill="#0085b2"/>
        <line id="Line_2" data-name="Line 2" x2="10.618" y2="2.896" transform="translate(41.193 23.701)" fill="none" stroke="#0f6895" stroke-linecap="round" stroke-linejoin="round" stroke-width="2"/>
        <line id="Line_3" data-name="Line 3" x1="2.735" y1="29.092" transform="translate(50.022 26.109)" fill="none" stroke="#0f6895" stroke-linecap="round" stroke-linejoin="round" stroke-width="2"/>
      </g>
      <g id="Group_1657" data-name="Group 1657" transform="translate(39.761)">
        <path id="Path_633" data-name="Path 633" d="M324.484,78.1c.268-1.132,2.384-10.71-3.532-16.533a14.362,14.362,0,0,0-5.716-3.317c-6.4-2.216-12.015-.084-18.295,2.3-4.565,1.732-7.6,2.934-8.09,5.516-.429,2.279,1.357,4.437,2.3,5.424a10.008,10.008,0,0,0,1.265,7.862l25.12,2.8Z" transform="translate(-288.786 -57.317)" fill="#1e3e54"/>
        <path id="Path_634" data-name="Path 634" d="M323.748,93.127l6.051,15.817-13.354,6.774-6.486-5.963,2-.805q-1.8-5.506-3.608-11.013Z" transform="translate(-293.213 -65.419)" fill="#ffc5a2"/>
        <path id="Path_635" data-name="Path 635" d="M298.812,68.486a10.949,10.949,0,0,0-3.818,2.909c-1.065,1.334-2.737,4.24-1.14,13.247,1.507,8.5,2.812,15.934,7.776,17.465,2.683.827,5.234-.412,7.861-1.689,7.037-3.421,10.624-9.608,12.2-12.948,2.749-3.316,4.169-6.493,3.748-8.247A3.734,3.734,0,0,0,324.6,77.6a3.28,3.28,0,0,0-2.356-.943c-1.541.043-3.047,1.466-3.518,3.542a8.373,8.373,0,0,1-1.6-2.938c-1.072-3.573,1.5-5.7.511-7.667-.777-1.545-3.574-1.721-9.168-2.071C301.888,67.109,299.7,68.049,298.812,68.486Z" transform="translate(-289.783 -59.603)" fill="#ffc5a2"/>
        <path id="Path_636" data-name="Path 636" d="M301.3,87l-1.341,7.246,2.41,1.319" transform="translate(-291.314 -64.032)" fill="none" stroke="#ea8045" stroke-linecap="round" stroke-linejoin="round" stroke-width="2"/>
        <path id="Path_637" data-name="Path 637" d="M308.569,88.333c.07.853.594,1.5,1.17,1.458s.987-.777.916-1.63-.593-1.506-1.17-1.458S308.5,87.48,308.569,88.333Z" transform="translate(-293.259 -63.965)" fill="#1e3e54" fill-rule="evenodd"/>
        <path id="Path_638" data-name="Path 638" d="M296.847,91.033c.07.853.593,1.5,1.17,1.458s.987-.777.916-1.63-.593-1.506-1.17-1.458S296.777,90.18,296.847,91.033Z" transform="translate(-290.608 -64.576)" fill="#1e3e54" fill-rule="evenodd"/>
        <path id="Path_639" data-name="Path 639" d="M312.086,99.346a1.99,1.99,0,0,1-.91,1.917,3.268,3.268,0,0,1-2.156.446,9.731,9.731,0,0,1-2.167-.572" transform="translate(-292.873 -66.826)" fill="none" stroke="#ea8045" stroke-linecap="round" stroke-linejoin="round" stroke-width="2"/>
        <path id="Path_640" data-name="Path 640" d="M329.057,83.551c-.438,1.262-.2,2.491.532,2.745s1.68-.563,2.118-1.825.2-2.491-.532-2.745S329.495,82.289,329.057,83.551Z" transform="translate(-297.847 -62.829)" fill="#ea8045"/>
        <path id="Path_641" data-name="Path 641" d="M311.019,80.657a12.43,12.43,0,0,0-5.408.594" transform="translate(-292.592 -62.58)" fill="none" stroke="#1e3e54" stroke-linecap="round" stroke-linejoin="round" stroke-width="2"/>
        <path id="Path_642" data-name="Path 642" d="M297.815,83.244a3.768,3.768,0,0,0-2.861.711" transform="translate(-290.181 -63.173)" fill="none" stroke="#1e3e54" stroke-linecap="round" stroke-linejoin="round" stroke-width="2"/>
        <g id="Group_1656" data-name="Group 1656" transform="translate(4.724 21.193)">
          <path id="Path_643" data-name="Path 643" d="M294.891,94.388c.173,1.285,1.34,9.323,5.677,12.422a6.515,6.515,0,0,0,2.62,1.2c.971.188,2.705.27,6.3-1.793a29.019,29.019,0,0,0,7.068-5.737c1.565-2.823.807-9.622.807-9.622-6.069,1.533-10.205,1.24-12.919.638a9.786,9.786,0,0,0-5.806.07A8.775,8.775,0,0,0,294.891,94.388Z" transform="translate(-294.891 -86.098)" fill="#fff"/>
          <line id="Line_4" data-name="Line 4" x1="2.127" y2="5.903" transform="translate(22.078)" fill="none" stroke="#fff" stroke-linecap="round" stroke-miterlimit="10" stroke-width="1"/>
          <path id="Path_644" data-name="Path 644" d="M329.514,91.467a35.114,35.114,0,0,1-5.988,7.821c-.545.535-1.093,1.035-1.636,1.5" transform="translate(-300.999 -86.236)" fill="none" stroke="#fff" stroke-linecap="round" stroke-miterlimit="10" stroke-width="1"/>
        </g>
      </g>
      <g id="Group_1663" data-name="Group 1663" transform="translate(0 41.99)">
        <path id="Path_645" data-name="Path 645" d="M287.951,201.211a104.328,104.328,0,0,0,60.09-1.521c1.2-16.7,2.06-33.859,2.567-51.775.167-5.9.344-16.652-5.693-24.621-1.38-1.821-5.262-6.946-12.158-9.082a21.147,21.147,0,0,0-4.236-.849,66.7,66.7,0,0,0-7.276-.722,59.063,59.063,0,0,0-15.082,1.342c-.481.107-.724.151-.968.21-3.678.887-8.53,3.34-13.361,10.158q-1.744,31.593-3.244,63.188Q288.264,194.374,287.951,201.211Z" transform="translate(-248.836 -111.813)" fill="#d4eefd"/>
        <path id="Path_646" data-name="Path 646" d="M312.7,126.347l2.016,6.2h2.84l5.3-5.134-5.817-2.922Z" transform="translate(-254.434 -114.504)" fill="#00b6f1"/>
        <path id="Path_647" data-name="Path 647" d="M309.049,127.576l7.208-3.085,7.824,3.93,3.655-3.118" transform="translate(-253.609 -114.504)" fill="none" stroke="#00b6f1" stroke-linecap="round" stroke-linejoin="round" stroke-width="2"/>
        <path id="Path_648" data-name="Path 648" d="M333.5,111.617a467.514,467.514,0,0,0-2.167,137.591h37.928C367.88,190.336,363.41,146.6,358.417,131.66c-1.377-4.118-4.352-13.024-12.595-17.467A23.536,23.536,0,0,0,333.5,111.617Z" transform="translate(-257.732 -111.584)" fill="#fff"/>
        <path id="Path_649" data-name="Path 649" d="M301.886,114.619,288.376,249.9h-9.881l4.937-62.528q-5.385-2.936-10.779-5.881.395-7.08.789-14.152c1.509.812,3.01,1.617,4.519,2.43,3.126-14.16,4.116-22.656,4.209-28.134a25.273,25.273,0,0,1,2.755-11.993,22.8,22.8,0,0,1,3.451-4.828S294.017,115.277,301.886,114.619Z" transform="translate(-245.375 -112.271)" fill="#fff"/>
        <path id="Path_650" data-name="Path 650" d="M313.515,134.9l-6.111,58.48,3.172,6.226,5.309-5.95.47-58.756Z" transform="translate(-253.237 -116.86)" fill="#00b6f1"/>
        <line id="Line_5" data-name="Line 5" y1="45.226" x2="3.121" transform="translate(38.773 28.128)" fill="none" stroke="#d4eefd" stroke-linecap="round" stroke-linejoin="round" stroke-width="2"/>
        <path id="Path_651" data-name="Path 651" d="M301.048,118.814l1.7,5.353-3.31,5.608,5.332,12.411" transform="translate(-251.434 -113.22)" fill="#fff" stroke="#d4eefd" stroke-linecap="round" stroke-linejoin="round" stroke-width="2"/>
        <path id="Path_652" data-name="Path 652" d="M340.85,114.126l-3.615,4.936,3.615,3.93-9.958,18.478" transform="translate(-258.55 -112.159)" fill="#fff" stroke="#d4eefd" stroke-linecap="round" stroke-linejoin="round" stroke-width="2"/>
        <g id="Group_1661" data-name="Group 1661" transform="translate(0 46.137)">
          <path id="Path_653" data-name="Path 653" d="M256.658,178.918c-.058-1.737.5-2.924,1.045-2.977.489-.046,1.1.789,1.479,1.924Z" transform="translate(-241.755 -172.28)" fill="#ffc5a2"/>
          <path id="Path_654" data-name="Path 654" d="M267.081,181.347s3.453-.894,2.952-2.275-5.73-3.811-4.2-7.231,11.76,8.005,12.5,11.708,1.349,9.656-4.988,10.56-11.647-8.548-11.647-8.548Z" transform="translate(-242.899 -171.21)" fill="#ffc5a2"/>
          <g id="Group_1660" data-name="Group 1660" transform="translate(0 1.917)">
            <g id="Group_1658" data-name="Group 1658" transform="translate(0 10.581)">
              <path id="Path_655" data-name="Path 655" d="M237.69,189.989a.29.29,0,0,1-.108-.56l5.158-2.047a.291.291,0,0,1,.215.54l-5.158,2.047A.3.3,0,0,1,237.69,189.989Z" transform="translate(-237.4 -187.362)" fill="#fff"/>
            </g>
            <g id="Group_1659" data-name="Group 1659" transform="translate(5.049)">
              <path id="Path_656" data-name="Path 656" d="M272.871,177.294l-1.278-3.193a.657.657,0,1,0-1.22.488l1.278,3.193a.657.657,0,1,0,1.22-.488Z" transform="translate(-249.898 -173.688)" fill="#fff"/>
              <path id="Path_657" data-name="Path 657" d="M264.675,175.7l-4,1.6-.538-1.343a.657.657,0,1,0-1.22.488l.019.046-14.382,5.754a.589.589,0,0,0-.327.765l.238.6-.425.17a.184.184,0,0,0-.1.241l.714,1.785a.185.185,0,0,0,.241.1l.426-.17.238.6a.588.588,0,0,0,.765.328L260.7,180.9l-.52-1.3h0l.538,1.344a.657.657,0,0,0,1.22-.489l-.538-1.343,4-1.6Z" transform="translate(-243.925 -174.107)" fill="#fff"/>
            </g>
          </g>
          <path id="Path_658" data-name="Path 658" d="M268.768,191.551a7.351,7.351,0,0,0-1.95-.83s2.817-2.382,2.467-3.756-3.767.054-3.767.054,2.626-2.139,2.132-3.763-4.272.582-4.272.582,1.9-2.993.636-4.017-4.932,3.1-4.932,3.1c-1.419-2.488-3.138-5.143-3.966-4.848-.948.338-.662,4.521.686,7.971a16.28,16.28,0,0,0,11.349,10.015c.272.056,4,.794,4.586-.4C272.217,194.679,270.5,192.611,268.768,191.551Z" transform="translate(-241.282 -172.758)" fill="#ffc5a2"/>
          <path id="Path_659" data-name="Path 659" d="M271.416,194.124a8.458,8.458,0,0,0-2.648-2.573,7.351,7.351,0,0,0-1.95-.83s2.817-2.382,2.467-3.756-3.767.054-3.767.054,2.626-2.139,2.132-3.763-4.272.582-4.272.582,1.9-2.993.636-4.017-4.932,3.1-4.932,3.1c-1.419-2.488-3.138-5.143-3.966-4.848-.948.338-.662,4.521.686,7.971" transform="translate(-241.282 -172.758)" fill="none" stroke="#ea8045" stroke-linecap="round" stroke-linejoin="round" stroke-width="2"/>
        </g>
        <g id="Group_1662" data-name="Group 1662" transform="translate(3.953 72.207)">
          <path id="Path_660" data-name="Path 660" d="M264.123,208.634a17.031,17.031,0,0,1-6.8-2.4c-3.45-2.123-4.34-1.3-4.485-.366s4.651,4.192,3.964,5.758-15.146,2.52-14.254,4.879,8.1,2.033,8.1,2.033c.475,1.178,2.615,6.132,7.074,7.224a12.676,12.676,0,0,0,5.213-.14,22.983,22.983,0,0,0,6.744-2.225,8.373,8.373,0,0,0-5.552-14.765Z" transform="translate(-242.509 -204.902)" fill="#ffc5a2"/>
          <path id="Path_661" data-name="Path 661" d="M264.123,208.634a17.031,17.031,0,0,1-6.8-2.4c-3.45-2.123-4.34-1.3-4.485-.366s4.651,4.192,3.964,5.758-15.146,2.52-14.254,4.879,8.1,2.033,8.1,2.033c.191.554,2.231,6.2,7.074,7.224" transform="translate(-242.509 -204.902)" fill="none" stroke="#ea8045" stroke-linecap="round" stroke-linejoin="round" stroke-width="2"/>
        </g>
        <path id="Path_662" data-name="Path 662" d="M344.64,148.884c-1.752,8.156-6.9,26.47-22.753,40.864A72.6,72.6,0,0,1,303.868,201.7a71.132,71.132,0,0,1-26.514,6.436L276.33,194.67a119.744,119.744,0,0,0,34.6-19.21,78.611,78.611,0,0,0,17.572-37.93" transform="translate(-246.207 -117.454)" fill="#fff"/>
        <path id="Path_663" data-name="Path 663" d="M329.568,166.457a78.6,78.6,0,0,0,10.981-28.927" transform="translate(-258.251 -117.454)" fill="none" stroke="#d4eefd" stroke-linecap="round" stroke-linejoin="round" stroke-width="2"/>
        <path id="Path_664" data-name="Path 664" d="M276.33,209.118a119.73,119.73,0,0,0,17.3-7.725" transform="translate(-246.207 -131.902)" fill="none" stroke="#d4eefd" stroke-linecap="round" stroke-linejoin="round" stroke-width="2"/>
        <path id="Path_665" data-name="Path 665" d="M344.939,152.2c-1.752,8.156-6.9,26.47-22.753,40.864a72.594,72.594,0,0,1-18.019,11.951,71.133,71.133,0,0,1-26.514,6.436" transform="translate(-246.506 -120.774)" fill="none" stroke="#d4eefd" stroke-linecap="round" stroke-linejoin="round" stroke-width="2"/>
        <line id="Line_6" data-name="Line 6" x2="14.893" y2="2.479" transform="translate(80.644 93.623)" fill="none" stroke="#d4eefd" stroke-linecap="round" stroke-linejoin="round" stroke-width="2"/>
      </g>
    </g>
    <g id="Group_1671" data-name="Group 1671" transform="translate(114.314 79.492)">
      <g id="Group_1665" data-name="Group 1665" transform="translate(9.311 130.51)">
        <path id="Path_666" data-name="Path 666" d="M172.65,258.005s.1,29.178,23.206,31.131,26.844,1.952,26.844,1.952l7.612,92.416h25.8c-1.164-27.52-1.948-49.22-2.44-69.42-.318-13.052-.635-30.4-12.021-41.282a68.362,68.362,0,0,0-11.137-8.071,86.091,86.091,0,0,0-25.01-10.088Z" transform="translate(-137.926 -254.643)" fill="#565b62"/>
        <path id="Path_667" data-name="Path 667" d="M127.774,258.005s.1,29.178,23.207,31.131,26.844,1.952,26.844,1.952l7.612,92.416h25.8c-1.165-27.52-1.948-49.22-2.44-69.42-.319-13.052-.634-30.4-12.022-41.282a68.4,68.4,0,0,0-11.136-8.071,86.094,86.094,0,0,0-25.011-10.088Z" transform="translate(-127.774 -254.643)" fill="#565b62"/>
        <path id="Path_668" data-name="Path 668" d="M217.265,292.789a33.172,33.172,0,0,0-9.736-17.958,31.047,31.047,0,0,0-4.9-3.624c-4.034-2.468-12.754-6.869-27.334-7.593" transform="translate(-138.525 -256.673)" fill="none" stroke="#31363e" stroke-linecap="round" stroke-miterlimit="10" stroke-width="2"/>
        <path id="Path_669" data-name="Path 669" d="M207.34,421.18h16.687s8.136,14.63,24.159,14.63v3.682H207.629Z" transform="translate(-145.774 -292.319)" fill="#bc5d00"/>
        <path id="Path_670" data-name="Path 670" d="M254.126,421.18h16.687s8.136,14.63,24.159,14.63v3.682H254.415Z" transform="translate(-156.359 -292.319)" fill="#bc5d00"/>
        <line id="Line_7" data-name="Line 7" y1="3.905" x2="6.896" transform="translate(50.051 32.54)" fill="none" stroke="#31363e" stroke-linecap="round" stroke-miterlimit="10" stroke-width="2"/>
        <line id="Line_8" data-name="Line 8" y1="3.905" x2="7.154" transform="translate(84.774 32.54)" fill="none" stroke="#31363e" stroke-linecap="round" stroke-miterlimit="10" stroke-width="2"/>
        <line id="Line_9" data-name="Line 9" x2="26.014" transform="translate(57.235 122.516)" fill="none" stroke="#31363e" stroke-linecap="round" stroke-miterlimit="10" stroke-width="2"/>
        <line id="Line_10" data-name="Line 10" x2="26.014" transform="translate(91.928 122.516)" fill="none" stroke="#31363e" stroke-linecap="round" stroke-miterlimit="10" stroke-width="2"/>
      </g>
      <g id="Group_1668" data-name="Group 1668" transform="translate(0 49.789)">
        <path id="Path_671" data-name="Path 671" d="M190.242,235.272c-8.01,5.992-31.564,2.929-31.564,2.929-7.586-.987-19.018-2.382-33.626-3.8q-.162-5.694-.326-11.389l-6.208,1.174a95.52,95.52,0,0,1-1.4-39.032c1.4-7.889,2.67-14.572,8.042-20.932,7.414-8.778,18.311-11.815,20.258-12.289,1.986-.484,4.236-.85,4.236-.85a66.892,66.892,0,0,1,7.276-.721,59.062,59.062,0,0,1,15.082,1.342c.329.063.648.137.967.21a62.3,62.3,0,0,1,18.186,7.4v27.105l-.018-.019q-.794,19.419-1.561,38.856c.68.7,3.68,3.939,2.788,7.14A5.527,5.527,0,0,1,190.242,235.272Z" transform="translate(-115.74 -150.321)" fill="#68a416"/>
        <line id="Line_11" data-name="Line 11" x1="1.961" y2="30.04" transform="translate(19.499 36.088)" fill="none" stroke="#3a7200" stroke-linecap="round" stroke-linejoin="round" stroke-width="2"/>
        <g id="Group_1666" data-name="Group 1666" transform="translate(2.665 63.649)">
          <path id="Path_672" data-name="Path 672" d="M120.462,236.638c2.284-3.525,7-4.385,10.252-3.956,4.991.657,7.482,4.5,12.535,9.968a123.214,123.214,0,0,0,16.216,14.63c1.493.377,10.713,2.773,15.663,7.348a13.716,13.716,0,0,1,3.675,6.3,2.032,2.032,0,0,1-.162,1.577,1.677,1.677,0,0,1-.926.632,2.805,2.805,0,0,1-2.437-.721,2.385,2.385,0,0,1-1.656,2.558,2.352,2.352,0,0,1-2.425-.821,2.4,2.4,0,0,1-4.376,1.44,2.729,2.729,0,0,1-1.383,1.742c-1.108.439-2.565-.36-5.789-3.281a75.253,75.253,0,0,1-6.318-6.466,154.24,154.24,0,0,0-21.85-12.807c-4.843-2.312-9.662-4.426-11.53-9.377C119.685,244.7,118.1,240.282,120.462,236.638Z" transform="translate(-119.184 -232.58)" fill="#ffc5a2"/>
          <path id="Path_673" data-name="Path 673" d="M191.08,282.816a42.165,42.165,0,0,0-2.044-4.262" transform="translate(-134.987 -242.981)" fill="none" stroke="#ea8045" stroke-linecap="round" stroke-miterlimit="10" stroke-width="2"/>
          <path id="Path_674" data-name="Path 674" d="M185.685,284.978a31.358,31.358,0,0,0-1.811-3.731" transform="translate(-133.819 -243.59)" fill="none" stroke="#ea8045" stroke-linecap="round" stroke-miterlimit="10" stroke-width="2"/>
          <path id="Path_675" data-name="Path 675" d="M180.354,287.358a9,9,0,0,0-1.346-2.772" transform="translate(-132.718 -244.345)" fill="none" stroke="#ea8045" stroke-linecap="round" stroke-miterlimit="10" stroke-width="2"/>
        </g>
        <path id="Path_676" data-name="Path 676" d="M172.333,167.818l-5.35-3.732-6.58,5.158-5.724-15.068" transform="translate(-124.549 -151.194)" fill="none" stroke="#3a7200" stroke-linecap="round" stroke-linejoin="round" stroke-width="2"/>
        <path id="Path_677" data-name="Path 677" d="M185.618,167.692l3.182-3.745,5.578,3.745L192.972,154.8" transform="translate(-131.549 -151.334)" fill="none" stroke="#3a7200" stroke-linecap="round" stroke-linejoin="round" stroke-width="2"/>
        <path id="Path_678" data-name="Path 678" d="M247.764,191.913c-.74,2-4.434,3.937-18.6,2.726q-4.536-3.02-9.228-6.044-3.375-2.174-6.717-4.275V161.953c.246.152.617.381,1.069.657,3.136,1.92,5.493,3.275,5.71,3.4C222.38,167.394,250.279,185.1,247.764,191.913Z" transform="translate(-137.793 -152.953)" fill="#ffc5a2"/>
        <path id="Path_679" data-name="Path 679" d="M206.959,246.792a51.063,51.063,0,0,0-14.414-1.2" transform="translate(-133.116 -171.854)" fill="none" stroke="#3a7200" stroke-linecap="round" stroke-linejoin="round" stroke-width="2"/>
        <g id="Group_1667" data-name="Group 1667" transform="translate(91.3 29.674)">
          <path id="Path_680" data-name="Path 680" d="M243.106,188.68c-4.2.193-7.32,3.832-8.59,6.853-1.951,4.64.11,8.732,2.277,15.852a123.174,123.174,0,0,1,4.444,21.384c-.769,1.822-3.966,9.824-1.563,17.23a49.6,49.6,0,0,0,3.214,6.538c1.927,3.6,3,5.116,4.209,5.038a1.67,1.67,0,0,0,1.014-.481c1.043-1.1.286-3.927-1.79-7.035a2.386,2.386,0,0,0,3.045-.139,2.353,2.353,0,0,0,.515-2.508,2.4,2.4,0,0,0,3.453-3.051,2.727,2.727,0,0,0,2.2-.314c.939-.735.984-2.4.09-6.654a75.455,75.455,0,0,0-2.392-8.717,154.132,154.132,0,0,1-.026-25.327c.449-5.348,1.056-10.574-2.276-14.686C250.459,192.08,247.445,188.481,243.106,188.68Z" transform="translate(-233.734 -188.672)" fill="#ffc5a2"/>
          <path id="Path_681" data-name="Path 681" d="M249.226,272.033a42.187,42.187,0,0,1-2.647-3.917" transform="translate(-236.64 -206.644)" fill="none" stroke="#ea8045" stroke-linecap="round" stroke-miterlimit="10" stroke-width="2"/>
          <path id="Path_682" data-name="Path 682" d="M253.817,268.466a31.317,31.317,0,0,1-2.307-3.446" transform="translate(-237.756 -205.944)" fill="none" stroke="#ea8045" stroke-linecap="round" stroke-miterlimit="10" stroke-width="2"/>
          <path id="Path_683" data-name="Path 683" d="M258.561,265.066a9,9,0,0,1-1.713-2.562" transform="translate(-238.963 -205.375)" fill="none" stroke="#ea8045" stroke-linecap="round" stroke-miterlimit="10" stroke-width="2"/>
        </g>
        <path id="Path_684" data-name="Path 684" d="M212.791,161.953q3.224,1.864,6.558,3.931,2.76,1.714,5.36,3.426-2.255,9.866-4.511,19.73l-7.407-4.721a43.531,43.531,0,0,1,0-22.367Z" transform="translate(-137.366 -152.953)" fill="#68a416"/>
        <path id="Path_685" data-name="Path 685" d="M224.012,192.935a6.869,6.869,0,0,1-4.585-.785,6.31,6.31,0,0,1-1.586-1.34,3.444,3.444,0,0,1-2.766-.979,3.521,3.521,0,0,1-.8-3.159,83.583,83.583,0,0,0,6.1-9.2c1.429-2.5,2.632-4.9,3.648-7.16a3.91,3.91,0,0,1,5.043,2.4,4.565,4.565,0,0,1,2.522.894,4.74,4.74,0,0,1,1.787,3.2,35.033,35.033,0,0,1-9.363,16.128Z" transform="translate(-138.011 -154.79)" fill="#add872"/>
        <path id="Path_686" data-name="Path 686" d="M233.825,202.883a16.685,16.685,0,0,1,2.167-4.489" transform="translate(-142.455 -161.197)" fill="none" stroke="#ea8045" stroke-linecap="round" stroke-miterlimit="10" stroke-width="2"/>
        <path id="Path_687" data-name="Path 687" d="M218.911,194.167s2.589-1.49,6.386-9.254" transform="translate(-139.081 -158.147)" fill="none" stroke="#68a416" stroke-linecap="round" stroke-linejoin="round" stroke-width="2"/>
        <path id="Path_688" data-name="Path 688" d="M233.082,173.477a9.5,9.5,0,0,1-1.152,2.224" transform="translate(-142.026 -155.56)" fill="none" stroke="#68a416" stroke-linecap="round" stroke-linejoin="round" stroke-width="2"/>
        <path id="Path_689" data-name="Path 689" d="M196.628,216.184a76.02,76.02,0,0,1-36.048,27.488" transform="translate(-125.884 -165.221)" fill="none" stroke="#3a7200" stroke-linecap="round" stroke-linejoin="round" stroke-width="2"/>
        <path id="Path_690" data-name="Path 690" d="M213.04,189.294v-5.7" transform="translate(-137.752 -157.849)" fill="none" stroke="#3a7200" stroke-linecap="round" stroke-linejoin="round" stroke-width="2"/>
      </g>
      <g id="Group_1670" data-name="Group 1670" transform="translate(25.683)">
        <path id="Path_691" data-name="Path 691" d="M188.02,114.885a16.377,16.377,0,0,0-.753-13.811,7.792,7.792,0,0,0,3.821-4.422,7.438,7.438,0,0,0,.157-3.846l-4.361.695a8.776,8.776,0,0,0,.121-7.525l-14.5,3.581c-8.032-.678-15.17,2.391-18.1,7.959a13.357,13.357,0,0,0-1.466,6.751,5.54,5.54,0,0,0-2.119,1.256c-2.63,2.538-2.468,7.895.235,13.434l8.046,10.9Z" transform="translate(-148.932 -85.975)" fill="#1e3e54"/>
        <path id="Path_692" data-name="Path 692" d="M162.071,128.248v18.865c.675.706,1.381,1.411,2.071,2.086,5.358,5.283,11,9.561,13.433,9.636,2.792.1,4.728-6.259,5.9-12.127-.616-.135-1.246-.27-1.891-.375V128.248Z" transform="translate(-151.904 -95.538)" fill="#ffc5a2"/>
        <path id="Path_693" data-name="Path 693" d="M183.208,144.408v3.914c-.686-.011-9.126-.271-12.59-6.52a11.285,11.285,0,0,1-1.361-4.762Z" transform="translate(-153.53 -97.527)" fill="#ea8045"/>
        <path id="Path_694" data-name="Path 694" d="M190.186,119.03c-.023,1.633-.054,3.227-.108,4.751v.031c-.248,6.538-1.045,11.839-4.813,13.7-2.515,1.238-5.231.418-8.032-.426a24.054,24.054,0,0,1-8.287-4.472,30.722,30.722,0,0,1-5.8-6.384c-3.234-2.84-5.146-5.757-5.006-7.552a3.785,3.785,0,0,1,.58-1.741,3.284,3.284,0,0,1,2.174-1.3c1.532-.2,3.242.967,4.031,2.94a8.3,8.3,0,0,0,1.122-3.157c.518-3.9-2.546-6.345-1.718-7.49.952-1.3,4.7,2.12,9.37,1.029,4-.929,4.728-4.248,8.635-4.318a8.215,8.215,0,0,1,4.635,1.493C187.958,106.874,190.349,109.095,190.186,119.03Z" transform="translate(-151.013 -90.197)" fill="#ffc5a2"/>
        <path id="Path_695" data-name="Path 695" d="M192.358,120.882q.354,2.273.709,4.544l1.22,2.568-2.293,1.512" transform="translate(-158.674 -93.872)" fill="none" stroke="#ea8045" stroke-linecap="round" stroke-linejoin="round" stroke-width="2"/>
        <ellipse id="Ellipse_18" data-name="Ellipse 18" cx="1.047" cy="1.549" rx="1.047" ry="1.549" transform="translate(26.403 27.293)" fill="#1e3e54"/>
        <ellipse id="Ellipse_19" data-name="Ellipse 19" cx="1.047" cy="1.549" rx="1.047" ry="1.549" transform="translate(35.614 28.632)" fill="#1e3e54"/>
        <path id="Path_696" data-name="Path 696" d="M181.761,135.881a1.991,1.991,0,0,0,1.2,1.75,3.274,3.274,0,0,0,2.2.1,9.778,9.778,0,0,0,2.049-.907" transform="translate(-156.359 -97.265)" fill="none" stroke="#ea8045" stroke-linecap="round" stroke-linejoin="round" stroke-width="2"/>
        <path id="Path_697" data-name="Path 697" d="M163.188,122.816c.632,1.177.591,2.428-.091,2.794s-1.748-.29-2.379-1.467-.591-2.428.091-2.794S162.556,121.639,163.188,122.816Z" transform="translate(-151.497 -93.955)" fill="#ea8045"/>
        <path id="Path_698" data-name="Path 698" d="M179.976,115.588a12.429,12.429,0,0,1,5.433-.268" transform="translate(-155.955 -92.573)" fill="none" stroke="#1e3e54" stroke-linecap="round" stroke-linejoin="round" stroke-width="2"/>
        <path id="Path_699" data-name="Path 699" d="M194.156,116.006a3.768,3.768,0,0,1,2.937.251" transform="translate(-159.163 -92.727)" fill="none" stroke="#1e3e54" stroke-linecap="round" stroke-linejoin="round" stroke-width="2"/>
        <g id="Group_1669" data-name="Group 1669" transform="translate(10.167 28.377)">
          <path id="Path_700" data-name="Path 700" d="M192.713,128.766v.031c-.248,6.538-1.045,11.839-4.813,13.7-2.515,1.238-5.231.418-8.032-.426a24.055,24.055,0,0,1-8.287-4.472c-1.849-2.646-1.8-9.486-1.8-9.486s13.448-1.8,18.261-1.37C192.466,127.126,192.706,128.534,192.713,128.766Z" transform="translate(-163.815 -123.559)" fill="#fff"/>
          <line id="Line_12" data-name="Line 12" x2="2.729" y2="5.65" transform="translate(3.743)" fill="none" stroke="#fff" stroke-linecap="round" stroke-miterlimit="10" stroke-width="1"/>
          <path id="Path_701" data-name="Path 701" d="M162.071,129.95a35.11,35.11,0,0,0,6.769,7.157q.9.714,1.784,1.325" transform="translate(-162.071 -124.3)" fill="none" stroke="#fff" stroke-linecap="round" stroke-miterlimit="10" stroke-width="1"/>
        </g>
      </g>
    </g>
  </g>
</svg>
